<svg xmlns="http://www.w3.org/2000/svg" version="1.1" xmlns:xlink="http://www.w3.org/1999/xlink" xmlns:svgjs="http://svgjs.com/svgjs" width="1440" height="560" preserveAspectRatio="none" viewBox="0 0 1440 560"><g mask="url(&quot;#SvgjsMask1008&quot;)" fill="none"><rect width="1440" height="560" x="0" y="0" fill="rgba(0, 0, 0, 1)"></rect><path d="M42.02 -61.49L106.97 -23.99L106.97 51.01L42.02 88.51L-22.93 51.01L-22.93 -23.99zM236.88 276.01L301.83 313.51L301.83 388.51L236.88 426.01L171.93 388.51L171.93 313.51zM301.83 163.51L366.79 201.01L366.79 276.01L301.83 313.51L236.88 276.01L236.88 201.01zM366.79 276.01L431.74 313.51L431.74 388.51L366.79 426.01L301.83 388.51L301.83 313.51zM301.83 388.51L366.79 426.01L366.79 501.01L301.83 538.51L236.88 501.01L236.88 426.01zM496.7 51.01L561.65 88.51L561.65 163.51L496.7 201.01L431.74 163.51L431.74 88.51zM626.6 51.01L691.56 88.51L691.56 163.51L626.6 201.01L561.65 163.51L561.65 88.51zM691.56 -61.49L756.51 -23.99L756.51 51.01L691.56 88.51L626.6 51.01L626.6 -23.99zM691.56 163.51L756.51 201.01L756.51 276.01L691.56 313.51L626.6 276.01L626.6 201.01zM756.51 276.01L821.47 313.51L821.47 388.51L756.51 426.01L691.56 388.51L691.56 313.51zM821.46 388.51L886.42 426.01L886.42 501.01L821.46 538.51L756.51 501.01L756.51 426.01zM1081.28 -61.49L1146.23 -23.99L1146.23 51.01L1081.28 88.51L1016.33 51.01L1016.33 -23.99zM1406.05 51.01L1471 88.51L1471 163.51L1406.05 201.01L1341.1 163.51L1341.1 88.51zM1406.05 276.01L1471 313.51L1471 388.51L1406.05 426.01L1341.1 388.51L1341.1 313.51zM1535.96 51.01L1600.91 88.51L1600.91 163.51L1535.96 201.01L1471 163.51L1471 88.51zM1535.96 276.01L1600.91 313.51L1600.91 388.51L1535.96 426.01L1471 388.51L1471 313.51zM1471 388.51L1535.96 426.01L1535.96 501.01L1471 538.51L1406.05 501.01L1406.05 426.01z" stroke="rgba(45, 255, 2, 1)" stroke-width="2"></path><path d="M34.52 -61.49 a7.5 7.5 0 1 0 15 0 a7.5 7.5 0 1 0 -15 0zM99.47 -23.99 a7.5 7.5 0 1 0 15 0 a7.5 7.5 0 1 0 -15 0zM99.47 51.01 a7.5 7.5 0 1 0 15 0 a7.5 7.5 0 1 0 -15 0zM34.52 88.51 a7.5 7.5 0 1 0 15 0 a7.5 7.5 0 1 0 -15 0zM-30.43 51.01 a7.5 7.5 0 1 0 15 0 a7.5 7.5 0 1 0 -15 0zM-30.43 -23.99 a7.5 7.5 0 1 0 15 0 a7.5 7.5 0 1 0 -15 0zM229.38 276.01 a7.5 7.5 0 1 0 15 0 a7.5 7.5 0 1 0 -15 0zM294.33 313.51 a7.5 7.5 0 1 0 15 0 a7.5 7.5 0 1 0 -15 0zM294.33 388.51 a7.5 7.5 0 1 0 15 0 a7.5 7.5 0 1 0 -15 0zM229.38 426.01 a7.5 7.5 0 1 0 15 0 a7.5 7.5 0 1 0 -15 0zM164.43 388.51 a7.5 7.5 0 1 0 15 0 a7.5 7.5 0 1 0 -15 0zM164.43 313.51 a7.5 7.5 0 1 0 15 0 a7.5 7.5 0 1 0 -15 0zM294.33 163.51 a7.5 7.5 0 1 0 15 0 a7.5 7.5 0 1 0 -15 0zM359.29 201.01 a7.5 7.5 0 1 0 15 0 a7.5 7.5 0 1 0 -15 0zM359.29 276.01 a7.5 7.5 0 1 0 15 0 a7.5 7.5 0 1 0 -15 0zM229.38 201.01 a7.5 7.5 0 1 0 15 0 a7.5 7.5 0 1 0 -15 0zM424.24 313.51 a7.5 7.5 0 1 0 15 0 a7.5 7.5 0 1 0 -15 0zM424.24 388.51 a7.5 7.5 0 1 0 15 0 a7.5 7.5 0 1 0 -15 0zM359.29 426.01 a7.5 7.5 0 1 0 15 0 a7.5 7.5 0 1 0 -15 0zM359.29 501.01 a7.5 7.5 0 1 0 15 0 a7.5 7.5 0 1 0 -15 0zM294.33 538.51 a7.5 7.5 0 1 0 15 0 a7.5 7.5 0 1 0 -15 0zM229.38 501.01 a7.5 7.5 0 1 0 15 0 a7.5 7.5 0 1 0 -15 0zM489.2 51.01 a7.5 7.5 0 1 0 15 0 a7.5 7.5 0 1 0 -15 0zM554.15 88.51 a7.5 7.5 0 1 0 15 0 a7.5 7.5 0 1 0 -15 0zM554.15 163.51 a7.5 7.5 0 1 0 15 0 a7.5 7.5 0 1 0 -15 0zM489.2 201.01 a7.5 7.5 0 1 0 15 0 a7.5 7.5 0 1 0 -15 0zM424.24 163.51 a7.5 7.5 0 1 0 15 0 a7.5 7.5 0 1 0 -15 0zM424.24 88.51 a7.5 7.5 0 1 0 15 0 a7.5 7.5 0 1 0 -15 0zM619.1 51.01 a7.5 7.5 0 1 0 15 0 a7.5 7.5 0 1 0 -15 0zM684.06 88.51 a7.5 7.5 0 1 0 15 0 a7.5 7.5 0 1 0 -15 0zM684.06 163.51 a7.5 7.5 0 1 0 15 0 a7.5 7.5 0 1 0 -15 0zM619.1 201.01 a7.5 7.5 0 1 0 15 0 a7.5 7.5 0 1 0 -15 0zM684.06 -61.49 a7.5 7.5 0 1 0 15 0 a7.5 7.5 0 1 0 -15 0zM749.01 -23.99 a7.5 7.5 0 1 0 15 0 a7.5 7.5 0 1 0 -15 0zM749.01 51.01 a7.5 7.5 0 1 0 15 0 a7.5 7.5 0 1 0 -15 0zM619.1 -23.99 a7.5 7.5 0 1 0 15 0 a7.5 7.5 0 1 0 -15 0zM749.01 201.01 a7.5 7.5 0 1 0 15 0 a7.5 7.5 0 1 0 -15 0zM749.01 276.01 a7.5 7.5 0 1 0 15 0 a7.5 7.5 0 1 0 -15 0zM684.06 313.51 a7.5 7.5 0 1 0 15 0 a7.5 7.5 0 1 0 -15 0zM619.1 276.01 a7.5 7.5 0 1 0 15 0 a7.5 7.5 0 1 0 -15 0zM813.97 313.51 a7.5 7.5 0 1 0 15 0 a7.5 7.5 0 1 0 -15 0zM813.97 388.51 a7.5 7.5 0 1 0 15 0 a7.5 7.5 0 1 0 -15 0zM749.01 426.01 a7.5 7.5 0 1 0 15 0 a7.5 7.5 0 1 0 -15 0zM684.06 388.51 a7.5 7.5 0 1 0 15 0 a7.5 7.5 0 1 0 -15 0zM813.96 388.51 a7.5 7.5 0 1 0 15 0 a7.5 7.5 0 1 0 -15 0zM878.92 426.01 a7.5 7.5 0 1 0 15 0 a7.5 7.5 0 1 0 -15 0zM878.92 501.01 a7.5 7.5 0 1 0 15 0 a7.5 7.5 0 1 0 -15 0zM813.96 538.51 a7.5 7.5 0 1 0 15 0 a7.5 7.5 0 1 0 -15 0zM749.01 501.01 a7.5 7.5 0 1 0 15 0 a7.5 7.5 0 1 0 -15 0zM1073.78 -61.49 a7.5 7.5 0 1 0 15 0 a7.5 7.5 0 1 0 -15 0zM1138.73 -23.99 a7.5 7.5 0 1 0 15 0 a7.5 7.5 0 1 0 -15 0zM1138.73 51.01 a7.5 7.5 0 1 0 15 0 a7.5 7.5 0 1 0 -15 0zM1073.78 88.51 a7.5 7.5 0 1 0 15 0 a7.5 7.5 0 1 0 -15 0zM1008.83 51.01 a7.5 7.5 0 1 0 15 0 a7.5 7.5 0 1 0 -15 0zM1008.83 -23.99 a7.5 7.5 0 1 0 15 0 a7.5 7.5 0 1 0 -15 0zM1398.55 51.01 a7.5 7.5 0 1 0 15 0 a7.5 7.5 0 1 0 -15 0zM1463.5 88.51 a7.5 7.5 0 1 0 15 0 a7.5 7.5 0 1 0 -15 0zM1463.5 163.51 a7.5 7.5 0 1 0 15 0 a7.5 7.5 0 1 0 -15 0zM1398.55 201.01 a7.5 7.5 0 1 0 15 0 a7.5 7.5 0 1 0 -15 0zM1333.6 163.51 a7.5 7.5 0 1 0 15 0 a7.5 7.5 0 1 0 -15 0zM1333.6 88.51 a7.5 7.5 0 1 0 15 0 a7.5 7.5 0 1 0 -15 0zM1398.55 276.01 a7.5 7.5 0 1 0 15 0 a7.5 7.5 0 1 0 -15 0zM1463.5 313.51 a7.5 7.5 0 1 0 15 0 a7.5 7.5 0 1 0 -15 0zM1463.5 388.51 a7.5 7.5 0 1 0 15 0 a7.5 7.5 0 1 0 -15 0zM1398.55 426.01 a7.5 7.5 0 1 0 15 0 a7.5 7.5 0 1 0 -15 0zM1333.6 388.51 a7.5 7.5 0 1 0 15 0 a7.5 7.5 0 1 0 -15 0zM1333.6 313.51 a7.5 7.5 0 1 0 15 0 a7.5 7.5 0 1 0 -15 0zM1528.46 51.01 a7.5 7.5 0 1 0 15 0 a7.5 7.5 0 1 0 -15 0zM1593.41 88.51 a7.5 7.5 0 1 0 15 0 a7.5 7.5 0 1 0 -15 0zM1593.41 163.51 a7.5 7.5 0 1 0 15 0 a7.5 7.5 0 1 0 -15 0zM1528.46 201.01 a7.5 7.5 0 1 0 15 0 a7.5 7.5 0 1 0 -15 0zM1528.46 276.01 a7.5 7.5 0 1 0 15 0 a7.5 7.5 0 1 0 -15 0zM1593.41 313.51 a7.5 7.5 0 1 0 15 0 a7.5 7.5 0 1 0 -15 0zM1593.41 388.51 a7.5 7.5 0 1 0 15 0 a7.5 7.5 0 1 0 -15 0zM1528.46 426.01 a7.5 7.5 0 1 0 15 0 a7.5 7.5 0 1 0 -15 0zM1528.46 501.01 a7.5 7.5 0 1 0 15 0 a7.5 7.5 0 1 0 -15 0zM1463.5 538.51 a7.5 7.5 0 1 0 15 0 a7.5 7.5 0 1 0 -15 0zM1398.55 501.01 a7.5 7.5 0 1 0 15 0 a7.5 7.5 0 1 0 -15 0z" fill="rgba(45, 255, 2, 1)"></path><path d="M43.28 -17.74L86.58 7.26L86.58 57.26L43.28 82.26L-0.02 57.26L-0.02 7.26zM43.28 432.26L86.58 457.26L86.58 507.26L43.28 532.26L-0.02 507.26L-0.02 457.26zM173.19 207.26L216.49 232.26L216.49 282.26L173.19 307.26L129.88 282.26L129.88 232.26zM173.19 357.26L216.49 382.26L216.49 432.26L173.19 457.26L129.88 432.26L129.88 382.26zM259.79 207.26L303.1 232.26L303.1 282.26L259.79 307.26L216.49 282.26L216.49 232.26zM216.49 282.26L259.79 307.26L259.79 357.26L216.49 382.26L173.19 357.26L173.19 307.26zM259.79 357.26L303.1 382.26L303.1 432.26L259.79 457.26L216.49 432.26L216.49 382.26zM303.1 -17.74L346.4 7.26L346.4 57.26L303.1 82.26L259.79 57.26L259.79 7.26zM389.7 -17.74L433 7.26L433 57.26L389.7 82.26L346.4 57.26L346.4 7.26zM433 207.26L476.31 232.26L476.31 282.26L433 307.26L389.7 282.26L389.7 232.26zM433 507.26L476.31 532.26L476.31 582.26L433 607.26L389.7 582.26L389.7 532.26zM562.91 132.26L606.21 157.26L606.21 207.26L562.91 232.26L519.61 207.26L519.61 157.26zM606.21 207.26L649.51 232.26L649.51 282.26L606.21 307.26L562.91 282.26L562.91 232.26zM606.21 357.26L649.51 382.26L649.51 432.26L606.21 457.26L562.91 432.26L562.91 382.26zM649.51 -17.74L692.82 7.26L692.82 57.26L649.51 82.26L606.21 57.26L606.21 7.26zM779.42 507.26L822.73 532.26L822.73 582.26L779.42 607.26L736.12 582.26L736.12 532.26zM866.03 57.26L909.33 82.26L909.33 132.26L866.03 157.26L822.73 132.26L822.73 82.26zM822.73 132.26L866.03 157.26L866.03 207.26L822.73 232.26L779.42 207.26L779.42 157.26zM866.03 357.26L909.33 382.26L909.33 432.26L866.03 457.26L822.73 432.26L822.73 382.26zM866.03 507.26L909.33 532.26L909.33 582.26L866.03 607.26L822.73 582.26L822.73 532.26zM952.63 57.26L995.94 82.26L995.94 132.26L952.63 157.26L909.33 132.26L909.33 82.26zM909.33 282.26L952.63 307.26L952.63 357.26L909.33 382.26L866.03 357.26L866.03 307.26zM952.63 507.26L995.94 532.26L995.94 582.26L952.63 607.26L909.33 582.26L909.33 532.26zM995.94 -17.74L1039.24 7.26L1039.24 57.26L995.94 82.26L952.63 57.26L952.63 7.26zM1082.54 432.26L1125.84 457.26L1125.84 507.26L1082.54 532.26L1039.24 507.26L1039.24 457.26zM1169.14 132.26L1212.45 157.26L1212.45 207.26L1169.14 232.26L1125.84 207.26L1125.84 157.26zM1169.14 282.26L1212.45 307.26L1212.45 357.26L1169.14 382.26L1125.84 357.26L1125.84 307.26zM1212.45 357.26L1255.75 382.26L1255.75 432.26L1212.45 457.26L1169.14 432.26L1169.14 382.26zM1299.05 57.26L1342.36 82.26L1342.36 132.26L1299.05 157.26L1255.75 132.26L1255.75 82.26zM1255.75 132.26L1299.05 157.26L1299.05 207.26L1255.75 232.26L1212.45 207.26L1212.45 157.26zM1255.75 432.26L1299.05 457.26L1299.05 507.26L1255.75 532.26L1212.45 507.26L1212.45 457.26zM1299.05 507.26L1342.36 532.26L1342.36 582.26L1299.05 607.26L1255.75 582.26L1255.75 532.26zM1385.66 57.26L1428.96 82.26L1428.96 132.26L1385.66 157.26L1342.36 132.26L1342.36 82.26zM1342.36 132.26L1385.66 157.26L1385.66 207.26L1342.36 232.26L1299.05 207.26L1299.05 157.26zM1385.66 507.26L1428.96 532.26L1428.96 582.26L1385.66 607.26L1342.36 582.26L1342.36 532.26zM1428.96 -17.74L1472.26 7.26L1472.26 57.26L1428.96 82.26L1385.66 57.26L1385.66 7.26zM1428.96 132.26L1472.26 157.26L1472.26 207.26L1428.96 232.26L1385.66 207.26L1385.66 157.26z" stroke="rgba(2, 255, 35, 0.93)" stroke-width="2"></path></g><defs><mask id="SvgjsMask1008"><rect width="1440" height="560" fill="#ffffff"></rect></mask></defs></svg>