<?xml version="1.0" standalone="no"?>
<!DOCTYPE svg PUBLIC "-//W3C//DTD SVG 20010904//EN"
 "http://www.w3.org/TR/2001/REC-SVG-20010904/DTD/svg10.dtd">
<svg version="1.0" xmlns="http://www.w3.org/2000/svg"
 width="1024.000000pt" height="127.000000pt" viewBox="0 0 1024.000000 127.000000"
 preserveAspectRatio="xMidYMid meet">

<g transform="translate(0.000000,127.000000) scale(0.100000,-0.100000)"
fill="#000000" stroke="none">
<path d="M142 1137 c-28 -30 -28 -58 1 -85 30 -28 58 -28 85 1 28 30 28 58 -1
85 -30 28 -58 28 -85 -1z m80 -4 c34 -31 11 -93 -35 -93 -27 0 -57 28 -57 53
0 48 56 73 92 40z"/>
<path d="M382 1137 c-28 -30 -28 -58 1 -85 30 -28 58 -28 85 1 28 30 28 58 -1
85 -30 28 -58 28 -85 -1z m80 -4 c34 -31 11 -93 -35 -93 -27 0 -57 28 -57 53
0 48 56 73 92 40z"/>
<path d="M622 1137 c-28 -30 -28 -58 1 -85 30 -28 58 -28 85 1 28 30 28 58 -1
85 -30 28 -58 28 -85 -1z m80 -4 c34 -31 11 -93 -35 -93 -27 0 -57 28 -57 53
0 48 56 73 92 40z"/>
<path d="M862 1137 c-28 -30 -28 -58 1 -85 30 -28 58 -28 85 1 28 30 28 58 -1
85 -30 28 -58 28 -85 -1z m80 -4 c34 -31 11 -93 -35 -93 -27 0 -57 28 -57 53
0 48 56 73 92 40z"/>
</g>
</svg>
