<svg xmlns="http://www.w3.org/2000/svg" version="1.1" xmlns:xlink="http://www.w3.org/1999/xlink" xmlns:svgjs="http://svgjs.com/svgjs" width="1440" height="560" preserveAspectRatio="none" viewBox="0 0 1440 560"><g mask="url(&quot;#SvgjsMask1006&quot;)" fill="none"><rect width="1440" height="560" x="0" y="0" fill="rgba(0, 0, 0, 1)"></rect><path d="M-64.14 389.47L-64.14 389.47" stroke="rgba(0, 255, 90, 1)" stroke-width="1.5"></path><path d="M-64.14 389.47L-106.52 505.22" stroke="rgba(0, 255, 90, 1)" stroke-width="1.5"></path><path d="M-64.14 389.47L79.29 378.39" stroke="rgba(0, 255, 90, 1)" stroke-width="1.5"></path><path d="M-64.14 389.47L62.24 529.04" stroke="rgba(0, 255, 90, 1)" stroke-width="1.5"></path><path d="M-64.14 389.47L212.91 368.88" stroke="rgba(0, 255, 90, 1)" stroke-width="1.5"></path><path d="M-64.14 389.47L48.13 671.64" stroke="rgba(0, 255, 90, 1)" stroke-width="1.5"></path><path d="M-64.14 389.47L-40.98 701.6" stroke="rgba(0, 255, 90, 1)" stroke-width="1.5"></path><path d="M-106.52 505.22L-106.52 505.22" stroke="rgba(0, 255, 90, 1)" stroke-width="1.5"></path><path d="M-106.52 505.22L62.24 529.04" stroke="rgba(0, 255, 90, 1)" stroke-width="1.5"></path><path d="M-106.52 505.22L-40.98 701.6" stroke="rgba(0, 255, 90, 1)" stroke-width="1.5"></path><path d="M-40.98 701.6L-40.98 701.6" stroke="rgba(0, 255, 90, 1)" stroke-width="1.5"></path><path d="M-40.98 701.6L48.13 671.64" stroke="rgba(0, 255, 90, 1)" stroke-width="1.5"></path><path d="M-40.98 701.6L62.24 529.04" stroke="rgba(0, 255, 90, 1)" stroke-width="1.5"></path><path d="M-40.98 701.6L231.27 645.51" stroke="rgba(0, 255, 90, 1)" stroke-width="1.5"></path><path d="M79.29 378.39L79.29 378.39" stroke="rgba(0, 255, 90, 1)" stroke-width="1.5"></path><path d="M79.29 378.39L212.91 368.88" stroke="rgba(0, 255, 90, 1)" stroke-width="1.5"></path><path d="M79.29 378.39L62.24 529.04" stroke="rgba(0, 255, 90, 1)" stroke-width="1.5"></path><path d="M79.29 378.39L-106.52 505.22" stroke="rgba(0, 255, 90, 1)" stroke-width="1.5"></path><path d="M79.29 378.39L252.91 524.99" stroke="rgba(0, 255, 90, 1)" stroke-width="1.5"></path><path d="M79.29 378.39L48.13 671.64" stroke="rgba(0, 255, 90, 1)" stroke-width="1.5"></path><path d="M62.24 529.04L62.24 529.04" stroke="rgba(0, 255, 90, 1)" stroke-width="1.5"></path><path d="M62.24 529.04L48.13 671.64" stroke="rgba(0, 255, 90, 1)" stroke-width="1.5"></path><path d="M62.24 529.04L252.91 524.99" stroke="rgba(0, 255, 90, 1)" stroke-width="1.5"></path><path d="M48.13 671.64L48.13 671.64" stroke="rgba(0, 255, 90, 1)" stroke-width="1.5"></path><path d="M48.13 671.64L231.27 645.51" stroke="rgba(0, 255, 90, 1)" stroke-width="1.5"></path><path d="M48.13 671.64L-106.52 505.22" stroke="rgba(0, 255, 90, 1)" stroke-width="1.5"></path><path d="M212.91 368.88L212.91 368.88" stroke="rgba(0, 255, 90, 1)" stroke-width="1.5"></path><path d="M212.91 368.88L252.91 524.99" stroke="rgba(0, 255, 90, 1)" stroke-width="1.5"></path><path d="M212.91 368.88L411.97 357.74" stroke="rgba(0, 255, 90, 1)" stroke-width="1.5"></path><path d="M212.91 368.88L62.24 529.04" stroke="rgba(0, 255, 90, 1)" stroke-width="1.5"></path><path d="M252.91 524.99L252.91 524.99" stroke="rgba(0, 255, 90, 1)" stroke-width="1.5"></path><path d="M252.91 524.99L231.27 645.51" stroke="rgba(0, 255, 90, 1)" stroke-width="1.5"></path><path d="M252.91 524.99L393.07 519.62" stroke="rgba(0, 255, 90, 1)" stroke-width="1.5"></path><path d="M231.27 645.51L231.27 645.51" stroke="rgba(0, 255, 90, 1)" stroke-width="1.5"></path><path d="M231.27 645.51L388.07 708.08" stroke="rgba(0, 255, 90, 1)" stroke-width="1.5"></path><path d="M231.27 645.51L393.07 519.62" stroke="rgba(0, 255, 90, 1)" stroke-width="1.5"></path><path d="M231.27 645.51L62.24 529.04" stroke="rgba(0, 255, 90, 1)" stroke-width="1.5"></path><path d="M411.97 357.74L411.97 357.74" stroke="rgba(0, 255, 90, 1)" stroke-width="1.5"></path><path d="M411.97 357.74L524.45 377.95" stroke="rgba(0, 255, 90, 1)" stroke-width="1.5"></path><path d="M411.97 357.74L393.07 519.62" stroke="rgba(0, 255, 90, 1)" stroke-width="1.5"></path><path d="M393.07 519.62L393.07 519.62" stroke="rgba(0, 255, 90, 1)" stroke-width="1.5"></path><path d="M388.07 708.08L388.07 708.08" stroke="rgba(0, 255, 90, 1)" stroke-width="1.5"></path><path d="M388.07 708.08L495.75 661.27" stroke="rgba(0, 255, 90, 1)" stroke-width="1.5"></path><path d="M524.45 377.95L524.45 377.95" stroke="rgba(0, 255, 90, 1)" stroke-width="1.5"></path><path d="M524.45 377.95L562.38 512.59" stroke="rgba(0, 255, 90, 1)" stroke-width="1.5"></path><path d="M524.45 377.95L393.07 519.62" stroke="rgba(0, 255, 90, 1)" stroke-width="1.5"></path><path d="M524.45 377.95L680.4 256.64" stroke="rgba(0, 255, 90, 1)" stroke-width="1.5"></path><path d="M524.45 377.95L669.18 519.52" stroke="rgba(0, 255, 90, 1)" stroke-width="1.5"></path><path d="M562.38 512.59L562.38 512.59" stroke="rgba(0, 255, 90, 1)" stroke-width="1.5"></path><path d="M562.38 512.59L669.18 519.52" stroke="rgba(0, 255, 90, 1)" stroke-width="1.5"></path><path d="M495.75 661.27L495.75 661.27" stroke="rgba(0, 255, 90, 1)" stroke-width="1.5"></path><path d="M495.75 661.27L654.85 645.81" stroke="rgba(0, 255, 90, 1)" stroke-width="1.5"></path><path d="M495.75 661.27L562.38 512.59" stroke="rgba(0, 255, 90, 1)" stroke-width="1.5"></path><path d="M495.75 661.27L393.07 519.62" stroke="rgba(0, 255, 90, 1)" stroke-width="1.5"></path><path d="M680.4 256.64L680.4 256.64" stroke="rgba(0, 255, 90, 1)" stroke-width="1.5"></path><path d="M680.4 256.64L843.29 257.13" stroke="rgba(0, 255, 90, 1)" stroke-width="1.5"></path><path d="M680.4 256.64L857.33 367.12" stroke="rgba(0, 255, 90, 1)" stroke-width="1.5"></path><path d="M680.4 256.64L669.18 519.52" stroke="rgba(0, 255, 90, 1)" stroke-width="1.5"></path><path d="M669.18 519.52L669.18 519.52" stroke="rgba(0, 255, 90, 1)" stroke-width="1.5"></path><path d="M669.18 519.52L654.85 645.81" stroke="rgba(0, 255, 90, 1)" stroke-width="1.5"></path><path d="M669.18 519.52L836.66 548.54" stroke="rgba(0, 255, 90, 1)" stroke-width="1.5"></path><path d="M669.18 519.52L495.75 661.27" stroke="rgba(0, 255, 90, 1)" stroke-width="1.5"></path><path d="M654.85 645.81L654.85 645.81" stroke="rgba(0, 255, 90, 1)" stroke-width="1.5"></path><path d="M843.29 257.13L843.29 257.13" stroke="rgba(0, 255, 90, 1)" stroke-width="1.5"></path><path d="M843.29 257.13L857.33 367.12" stroke="rgba(0, 255, 90, 1)" stroke-width="1.5"></path><path d="M843.29 257.13L958.07 203.07" stroke="rgba(0, 255, 90, 1)" stroke-width="1.5"></path><path d="M857.33 367.12L857.33 367.12" stroke="rgba(0, 255, 90, 1)" stroke-width="1.5"></path><path d="M857.33 367.12L990.64 383.86" stroke="rgba(0, 255, 90, 1)" stroke-width="1.5"></path><path d="M857.33 367.12L836.66 548.54" stroke="rgba(0, 255, 90, 1)" stroke-width="1.5"></path><path d="M857.33 367.12L958.07 203.07" stroke="rgba(0, 255, 90, 1)" stroke-width="1.5"></path><path d="M857.33 367.12L1004.76 538.26" stroke="rgba(0, 255, 90, 1)" stroke-width="1.5"></path><path d="M836.66 548.54L836.66 548.54" stroke="rgba(0, 255, 90, 1)" stroke-width="1.5"></path><path d="M836.66 548.54L802.52 705.39" stroke="rgba(0, 255, 90, 1)" stroke-width="1.5"></path><path d="M836.66 548.54L1004.76 538.26" stroke="rgba(0, 255, 90, 1)" stroke-width="1.5"></path><path d="M836.66 548.54L966.2 676.31" stroke="rgba(0, 255, 90, 1)" stroke-width="1.5"></path><path d="M802.52 705.39L802.52 705.39" stroke="rgba(0, 255, 90, 1)" stroke-width="1.5"></path><path d="M802.52 705.39L654.85 645.81" stroke="rgba(0, 255, 90, 1)" stroke-width="1.5"></path><path d="M802.52 705.39L966.2 676.31" stroke="rgba(0, 255, 90, 1)" stroke-width="1.5"></path><path d="M938.83 -50.32L938.83 -50.32" stroke="rgba(0, 255, 90, 1)" stroke-width="1.5"></path><path d="M938.83 -50.32L1004.67 92.95" stroke="rgba(0, 255, 90, 1)" stroke-width="1.5"></path><path d="M938.83 -50.32L1101.52 84.35" stroke="rgba(0, 255, 90, 1)" stroke-width="1.5"></path><path d="M1004.67 92.95L1004.67 92.95" stroke="rgba(0, 255, 90, 1)" stroke-width="1.5"></path><path d="M1004.67 92.95L1101.52 84.35" stroke="rgba(0, 255, 90, 1)" stroke-width="1.5"></path><path d="M1004.67 92.95L958.07 203.07" stroke="rgba(0, 255, 90, 1)" stroke-width="1.5"></path><path d="M1004.67 92.95L1138.63 223.18" stroke="rgba(0, 255, 90, 1)" stroke-width="1.5"></path><path d="M958.07 203.07L958.07 203.07" stroke="rgba(0, 255, 90, 1)" stroke-width="1.5"></path><path d="M958.07 203.07L1138.63 223.18" stroke="rgba(0, 255, 90, 1)" stroke-width="1.5"></path><path d="M958.07 203.07L990.64 383.86" stroke="rgba(0, 255, 90, 1)" stroke-width="1.5"></path><path d="M958.07 203.07L1101.52 84.35" stroke="rgba(0, 255, 90, 1)" stroke-width="1.5"></path><path d="M990.64 383.86L990.64 383.86" stroke="rgba(0, 255, 90, 1)" stroke-width="1.5"></path><path d="M990.64 383.86L1092.11 392.36" stroke="rgba(0, 255, 90, 1)" stroke-width="1.5"></path><path d="M990.64 383.86L1004.76 538.26" stroke="rgba(0, 255, 90, 1)" stroke-width="1.5"></path><path d="M990.64 383.86L843.29 257.13" stroke="rgba(0, 255, 90, 1)" stroke-width="1.5"></path><path d="M1004.76 538.26L1004.76 538.26" stroke="rgba(0, 255, 90, 1)" stroke-width="1.5"></path><path d="M1004.76 538.26L966.2 676.31" stroke="rgba(0, 255, 90, 1)" stroke-width="1.5"></path><path d="M966.2 676.31L966.2 676.31" stroke="rgba(0, 255, 90, 1)" stroke-width="1.5"></path><path d="M966.2 676.31L1101 690.29" stroke="rgba(0, 255, 90, 1)" stroke-width="1.5"></path><path d="M966.2 676.31L1160.87 512.93" stroke="rgba(0, 255, 90, 1)" stroke-width="1.5"></path><path d="M966.2 676.31L1245.94 668.33" stroke="rgba(0, 255, 90, 1)" stroke-width="1.5"></path><path d="M1159.39 -60.28L1159.39 -60.28" stroke="rgba(0, 255, 90, 1)" stroke-width="1.5"></path><path d="M1159.39 -60.28L1259.9 -103.54" stroke="rgba(0, 255, 90, 1)" stroke-width="1.5"></path><path d="M1159.39 -60.28L1101.52 84.35" stroke="rgba(0, 255, 90, 1)" stroke-width="1.5"></path><path d="M1159.39 -60.28L1254.84 74.53" stroke="rgba(0, 255, 90, 1)" stroke-width="1.5"></path><path d="M1159.39 -60.28L1004.67 92.95" stroke="rgba(0, 255, 90, 1)" stroke-width="1.5"></path><path d="M1101.52 84.35L1101.52 84.35" stroke="rgba(0, 255, 90, 1)" stroke-width="1.5"></path><path d="M1101.52 84.35L1138.63 223.18" stroke="rgba(0, 255, 90, 1)" stroke-width="1.5"></path><path d="M1101.52 84.35L1254.84 74.53" stroke="rgba(0, 255, 90, 1)" stroke-width="1.5"></path><path d="M1138.63 223.18L1138.63 223.18" stroke="rgba(0, 255, 90, 1)" stroke-width="1.5"></path><path d="M1138.63 223.18L1283.02 192.37" stroke="rgba(0, 255, 90, 1)" stroke-width="1.5"></path><path d="M1138.63 223.18L1261.75 347.62" stroke="rgba(0, 255, 90, 1)" stroke-width="1.5"></path><path d="M1138.63 223.18L1092.11 392.36" stroke="rgba(0, 255, 90, 1)" stroke-width="1.5"></path><path d="M1092.11 392.36L1092.11 392.36" stroke="rgba(0, 255, 90, 1)" stroke-width="1.5"></path><path d="M1092.11 392.36L1160.87 512.93" stroke="rgba(0, 255, 90, 1)" stroke-width="1.5"></path><path d="M1092.11 392.36L1004.76 538.26" stroke="rgba(0, 255, 90, 1)" stroke-width="1.5"></path><path d="M1092.11 392.36L1261.75 347.62" stroke="rgba(0, 255, 90, 1)" stroke-width="1.5"></path><path d="M1092.11 392.36L1258.55 489.6" stroke="rgba(0, 255, 90, 1)" stroke-width="1.5"></path><path d="M1160.87 512.93L1160.87 512.93" stroke="rgba(0, 255, 90, 1)" stroke-width="1.5"></path><path d="M1160.87 512.93L1258.55 489.6" stroke="rgba(0, 255, 90, 1)" stroke-width="1.5"></path><path d="M1101 690.29L1101 690.29" stroke="rgba(0, 255, 90, 1)" stroke-width="1.5"></path><path d="M1101 690.29L1245.94 668.33" stroke="rgba(0, 255, 90, 1)" stroke-width="1.5"></path><path d="M1101 690.29L1004.76 538.26" stroke="rgba(0, 255, 90, 1)" stroke-width="1.5"></path><path d="M1101 690.29L1160.87 512.93" stroke="rgba(0, 255, 90, 1)" stroke-width="1.5"></path><path d="M1259.9 -103.54L1259.9 -103.54" stroke="rgba(0, 255, 90, 1)" stroke-width="1.5"></path><path d="M1259.9 -103.54L1254.84 74.53" stroke="rgba(0, 255, 90, 1)" stroke-width="1.5"></path><path d="M1259.9 -103.54L1427.26 -41.82" stroke="rgba(0, 255, 90, 1)" stroke-width="1.5"></path><path d="M1259.9 -103.54L1454.27 42.18" stroke="rgba(0, 255, 90, 1)" stroke-width="1.5"></path><path d="M1259.9 -103.54L1101.52 84.35" stroke="rgba(0, 255, 90, 1)" stroke-width="1.5"></path><path d="M1254.84 74.53L1254.84 74.53" stroke="rgba(0, 255, 90, 1)" stroke-width="1.5"></path><path d="M1254.84 74.53L1283.02 192.37" stroke="rgba(0, 255, 90, 1)" stroke-width="1.5"></path><path d="M1254.84 74.53L1138.63 223.18" stroke="rgba(0, 255, 90, 1)" stroke-width="1.5"></path><path d="M1283.02 192.37L1283.02 192.37" stroke="rgba(0, 255, 90, 1)" stroke-width="1.5"></path><path d="M1283.02 192.37L1391.83 210.14" stroke="rgba(0, 255, 90, 1)" stroke-width="1.5"></path><path d="M1283.02 192.37L1261.75 347.62" stroke="rgba(0, 255, 90, 1)" stroke-width="1.5"></path><path d="M1261.75 347.62L1261.75 347.62" stroke="rgba(0, 255, 90, 1)" stroke-width="1.5"></path><path d="M1261.75 347.62L1258.55 489.6" stroke="rgba(0, 255, 90, 1)" stroke-width="1.5"></path><path d="M1261.75 347.62L1391.83 210.14" stroke="rgba(0, 255, 90, 1)" stroke-width="1.5"></path><path d="M1258.55 489.6L1258.55 489.6" stroke="rgba(0, 255, 90, 1)" stroke-width="1.5"></path><path d="M1245.94 668.33L1245.94 668.33" stroke="rgba(0, 255, 90, 1)" stroke-width="1.5"></path><path d="M1245.94 668.33L1160.87 512.93" stroke="rgba(0, 255, 90, 1)" stroke-width="1.5"></path><path d="M1245.94 668.33L1258.55 489.6" stroke="rgba(0, 255, 90, 1)" stroke-width="1.5"></path><path d="M1245.94 668.33L1004.76 538.26" stroke="rgba(0, 255, 90, 1)" stroke-width="1.5"></path><path d="M1427.26 -41.82L1427.26 -41.82" stroke="rgba(0, 255, 90, 1)" stroke-width="1.5"></path><path d="M1427.26 -41.82L1454.27 42.18" stroke="rgba(0, 255, 90, 1)" stroke-width="1.5"></path><path d="M1427.26 -41.82L1559.23 -97.21" stroke="rgba(0, 255, 90, 1)" stroke-width="1.5"></path><path d="M1427.26 -41.82L1254.84 74.53" stroke="rgba(0, 255, 90, 1)" stroke-width="1.5"></path><path d="M1454.27 42.18L1454.27 42.18" stroke="rgba(0, 255, 90, 1)" stroke-width="1.5"></path><path d="M1454.27 42.18L1559.23 -97.21" stroke="rgba(0, 255, 90, 1)" stroke-width="1.5"></path><path d="M1454.27 42.18L1391.83 210.14" stroke="rgba(0, 255, 90, 1)" stroke-width="1.5"></path><path d="M1454.27 42.18L1254.84 74.53" stroke="rgba(0, 255, 90, 1)" stroke-width="1.5"></path><path d="M1454.27 42.18L1283.02 192.37" stroke="rgba(0, 255, 90, 1)" stroke-width="1.5"></path><path d="M1391.83 210.14L1391.83 210.14" stroke="rgba(0, 255, 90, 1)" stroke-width="1.5"></path><path d="M1391.83 210.14L1462.07 376.46" stroke="rgba(0, 255, 90, 1)" stroke-width="1.5"></path><path d="M1462.07 376.46L1462.07 376.46" stroke="rgba(0, 255, 90, 1)" stroke-width="1.5"></path><path d="M1462.07 376.46L1604.94 375.24" stroke="rgba(0, 255, 90, 1)" stroke-width="1.5"></path><path d="M1462.07 376.46L1595.65 510.51" stroke="rgba(0, 255, 90, 1)" stroke-width="1.5"></path><path d="M1559.23 -97.21L1559.23 -97.21" stroke="rgba(0, 255, 90, 1)" stroke-width="1.5"></path><path d="M1559.23 -97.21L1259.9 -103.54" stroke="rgba(0, 255, 90, 1)" stroke-width="1.5"></path><path d="M1604.94 375.24L1604.94 375.24" stroke="rgba(0, 255, 90, 1)" stroke-width="1.5"></path><path d="M1604.94 375.24L1595.65 510.51" stroke="rgba(0, 255, 90, 1)" stroke-width="1.5"></path><path d="M1604.94 375.24L1391.83 210.14" stroke="rgba(0, 255, 90, 1)" stroke-width="1.5"></path><path d="M1604.94 375.24L1560.29 694.74" stroke="rgba(0, 255, 90, 1)" stroke-width="1.5"></path><path d="M1604.94 375.24L1261.75 347.62" stroke="rgba(0, 255, 90, 1)" stroke-width="1.5"></path><path d="M1595.65 510.51L1595.65 510.51" stroke="rgba(0, 255, 90, 1)" stroke-width="1.5"></path><path d="M1595.65 510.51L1560.29 694.74" stroke="rgba(0, 255, 90, 1)" stroke-width="1.5"></path><path d="M1595.65 510.51L1258.55 489.6" stroke="rgba(0, 255, 90, 1)" stroke-width="1.5"></path><path d="M1595.65 510.51L1391.83 210.14" stroke="rgba(0, 255, 90, 1)" stroke-width="1.5"></path><path d="M1560.29 694.74L1560.29 694.74" stroke="rgba(0, 255, 90, 1)" stroke-width="1.5"></path><path d="M1560.29 694.74L1245.94 668.33" stroke="rgba(0, 255, 90, 1)" stroke-width="1.5"></path><circle r="5" cx="-64.14" cy="389.47" fill="rgba(0, 255, 90, 1)"></circle><circle r="5" cx="-106.52" cy="505.22" fill="rgba(0, 255, 90, 1)"></circle><circle r="5" cx="-40.98" cy="701.6" fill="rgba(0, 255, 90, 1)"></circle><circle r="5" cx="79.29" cy="378.39" fill="rgba(0, 255, 90, 1)"></circle><circle r="5" cx="62.24" cy="529.04" fill="rgba(0, 255, 90, 1)"></circle><circle r="5" cx="48.13" cy="671.64" fill="rgba(0, 255, 90, 1)"></circle><circle r="5" cx="212.91" cy="368.88" fill="rgba(0, 255, 90, 1)"></circle><circle r="5" cx="252.91" cy="524.99" fill="rgba(0, 255, 90, 1)"></circle><circle r="5" cx="231.27" cy="645.51" fill="rgba(0, 255, 90, 1)"></circle><circle r="5" cx="411.97" cy="357.74" fill="rgba(0, 255, 90, 1)"></circle><circle r="5" cx="393.07" cy="519.62" fill="rgba(0, 255, 90, 1)"></circle><circle r="5" cx="388.07" cy="708.08" fill="rgba(0, 255, 90, 1)"></circle><circle r="5" cx="524.45" cy="377.95" fill="rgba(0, 255, 90, 1)"></circle><circle r="5" cx="562.38" cy="512.59" fill="rgba(0, 255, 90, 1)"></circle><circle r="5" cx="495.75" cy="661.27" fill="rgba(0, 255, 90, 1)"></circle><circle r="5" cx="680.4" cy="256.64" fill="rgba(0, 255, 90, 1)"></circle><circle r="5" cx="669.18" cy="519.52" fill="rgba(0, 255, 90, 1)"></circle><circle r="5" cx="654.85" cy="645.81" fill="rgba(0, 255, 90, 1)"></circle><circle r="5" cx="843.29" cy="257.13" fill="rgba(0, 255, 90, 1)"></circle><circle r="5" cx="857.33" cy="367.12" fill="rgba(0, 255, 90, 1)"></circle><circle r="5" cx="836.66" cy="548.54" fill="rgba(0, 255, 90, 1)"></circle><circle r="5" cx="802.52" cy="705.39" fill="rgba(0, 255, 90, 1)"></circle><circle r="5" cx="938.83" cy="-50.32" fill="rgba(0, 255, 90, 1)"></circle><circle r="5" cx="1004.67" cy="92.95" fill="rgba(0, 255, 90, 1)"></circle><circle r="5" cx="958.07" cy="203.07" fill="rgba(0, 255, 90, 1)"></circle><circle r="5" cx="990.64" cy="383.86" fill="rgba(0, 255, 90, 1)"></circle><circle r="5" cx="1004.76" cy="538.26" fill="rgba(0, 255, 90, 1)"></circle><circle r="5" cx="966.2" cy="676.31" fill="rgba(0, 255, 90, 1)"></circle><circle r="5" cx="1159.39" cy="-60.28" fill="rgba(0, 255, 90, 1)"></circle><circle r="5" cx="1101.52" cy="84.35" fill="rgba(0, 255, 90, 1)"></circle><circle r="5" cx="1138.63" cy="223.18" fill="rgba(0, 255, 90, 1)"></circle><circle r="5" cx="1092.11" cy="392.36" fill="rgba(0, 255, 90, 1)"></circle><circle r="5" cx="1160.87" cy="512.93" fill="rgba(0, 255, 90, 1)"></circle><circle r="5" cx="1101" cy="690.29" fill="rgba(0, 255, 90, 1)"></circle><circle r="5" cx="1259.9" cy="-103.54" fill="rgba(0, 255, 90, 1)"></circle><circle r="5" cx="1254.84" cy="74.53" fill="rgba(0, 255, 90, 1)"></circle><circle r="5" cx="1283.02" cy="192.37" fill="rgba(0, 255, 90, 1)"></circle><circle r="5" cx="1261.75" cy="347.62" fill="rgba(0, 255, 90, 1)"></circle><circle r="5" cx="1258.55" cy="489.6" fill="rgba(0, 255, 90, 1)"></circle><circle r="5" cx="1245.94" cy="668.33" fill="rgba(0, 255, 90, 1)"></circle><circle r="5" cx="1427.26" cy="-41.82" fill="rgba(0, 255, 90, 1)"></circle><circle r="5" cx="1454.27" cy="42.18" fill="rgba(0, 255, 90, 1)"></circle><circle r="5" cx="1391.83" cy="210.14" fill="rgba(0, 255, 90, 1)"></circle><circle r="5" cx="1462.07" cy="376.46" fill="rgba(0, 255, 90, 1)"></circle><circle r="5" cx="1559.23" cy="-97.21" fill="rgba(0, 255, 90, 1)"></circle><circle r="5" cx="1604.94" cy="375.24" fill="rgba(0, 255, 90, 1)"></circle><circle r="5" cx="1595.65" cy="510.51" fill="rgba(0, 255, 90, 1)"></circle><circle r="5" cx="1560.29" cy="694.74" fill="rgba(0, 255, 90, 1)"></circle><path d="M72.51 499.95L72.51 499.95" stroke="hsl(118.10000000000002, 100%, 65%)" stroke-width="1.5"></path><path d="M72.51 499.95L192.91 543.22" stroke="hsl(118.10000000000002, 100%, 65%)" stroke-width="1.5"></path><path d="M72.51 499.95L-107.75 490.98" stroke="hsl(118.10000000000002, 100%, 65%)" stroke-width="1.5"></path><path d="M72.51 499.95L193.68 644.26" stroke="hsl(118.10000000000002, 100%, 65%)" stroke-width="1.5"></path><path d="M192.91 543.22L192.91 543.22" stroke="hsl(118.10000000000002, 100%, 65%)" stroke-width="1.5"></path><path d="M192.91 543.22L193.68 644.26" stroke="hsl(118.10000000000002, 100%, 65%)" stroke-width="1.5"></path><path d="M192.91 543.22L373.58 494.1" stroke="hsl(118.10000000000002, 100%, 65%)" stroke-width="1.5"></path><path d="M192.91 543.22L355.59 648.24" stroke="hsl(118.10000000000002, 100%, 65%)" stroke-width="1.5"></path><path d="M192.91 543.22L62.49 706.42" stroke="hsl(118.10000000000002, 100%, 65%)" stroke-width="1.5"></path><path d="M192.91 543.22L-43.72 666.22" stroke="hsl(118.10000000000002, 100%, 65%)" stroke-width="1.5"></path><path d="M659.78 659.79L659.78 659.79" stroke="hsl(118.10000000000002, 100%, 65%)" stroke-width="1.5"></path><path d="M659.78 659.79L711.31 556.71" stroke="hsl(118.10000000000002, 100%, 65%)" stroke-width="1.5"></path><path d="M659.78 659.79L798.08 560.47" stroke="hsl(118.10000000000002, 100%, 65%)" stroke-width="1.5"></path><path d="M659.78 659.79L844.24 703.8" stroke="hsl(118.10000000000002, 100%, 65%)" stroke-width="1.5"></path><path d="M659.78 659.79L497.89 512.07" stroke="hsl(118.10000000000002, 100%, 65%)" stroke-width="1.5"></path><path d="M659.78 659.79L703.2 382.84" stroke="hsl(118.10000000000002, 100%, 65%)" stroke-width="1.5"></path><path d="M798.08 560.47L798.08 560.47" stroke="hsl(118.10000000000002, 100%, 65%)" stroke-width="1.5"></path><path d="M798.08 560.47L711.31 556.71" stroke="hsl(118.10000000000002, 100%, 65%)" stroke-width="1.5"></path><path d="M798.08 560.47L844.24 703.8" stroke="hsl(118.10000000000002, 100%, 65%)" stroke-width="1.5"></path><path d="M798.08 560.47L961.14 491.55" stroke="hsl(118.10000000000002, 100%, 65%)" stroke-width="1.5"></path><path d="M798.08 560.47L963.54 641.14" stroke="hsl(118.10000000000002, 100%, 65%)" stroke-width="1.5"></path><path d="M798.08 560.47L703.2 382.84" stroke="hsl(118.10000000000002, 100%, 65%)" stroke-width="1.5"></path><path d="M1160.15 60.45L1160.15 60.45" stroke="hsl(118.10000000000002, 100%, 65%)" stroke-width="1.5"></path><path d="M1160.15 60.45L1237.91 42.65" stroke="hsl(118.10000000000002, 100%, 65%)" stroke-width="1.5"></path><path d="M1160.15 60.45L1143.46 214.92" stroke="hsl(118.10000000000002, 100%, 65%)" stroke-width="1.5"></path><path d="M1153.58 494.79L1153.58 494.79" stroke="hsl(118.10000000000002, 100%, 65%)" stroke-width="1.5"></path><path d="M1153.58 494.79L1112.58 373.53" stroke="hsl(118.10000000000002, 100%, 65%)" stroke-width="1.5"></path><path d="M1153.58 494.79L1288.02 512.38" stroke="hsl(118.10000000000002, 100%, 65%)" stroke-width="1.5"></path><path d="M1432.63 243.2L1432.63 243.2" stroke="hsl(118.10000000000002, 100%, 65%)" stroke-width="1.5"></path><path d="M1432.63 243.2L1441.3 107.64" stroke="hsl(118.10000000000002, 100%, 65%)" stroke-width="1.5"></path><path d="M1432.63 243.2L1420.72 394.31" stroke="hsl(118.10000000000002, 100%, 65%)" stroke-width="1.5"></path><path d="M1580.37 -44.84L1580.37 -44.84" stroke="hsl(118.10000000000002, 100%, 65%)" stroke-width="1.5"></path><path d="M1580.37 -44.84L1609.33 107.54" stroke="hsl(118.10000000000002, 100%, 65%)" stroke-width="1.5"></path><path d="M1580.37 -44.84L1424.48 -71.3" stroke="hsl(118.10000000000002, 100%, 65%)" stroke-width="1.5"></path><path d="M1580.37 -44.84L1441.3 107.64" stroke="hsl(118.10000000000002, 100%, 65%)" stroke-width="1.5"></path><path d="M1580.37 -44.84L1601.93 197.43" stroke="hsl(118.10000000000002, 100%, 65%)" stroke-width="1.5"></path><path d="M1601.93 197.43L1601.93 197.43" stroke="hsl(118.10000000000002, 100%, 65%)" stroke-width="1.5"></path><path d="M1601.93 197.43L1609.33 107.54" stroke="hsl(118.10000000000002, 100%, 65%)" stroke-width="1.5"></path><path d="M1601.93 197.43L1432.63 243.2" stroke="hsl(118.10000000000002, 100%, 65%)" stroke-width="1.5"></path><path d="M1601.93 197.43L1441.3 107.64" stroke="hsl(118.10000000000002, 100%, 65%)" stroke-width="1.5"></path><path d="M1601.93 197.43L1557.23 399.7" stroke="hsl(118.10000000000002, 100%, 65%)" stroke-width="1.5"></path><path d="M-107.75 490.98L-107.75 490.98" stroke="hsl(118.10000000000002, 100%, 65%)" stroke-width="1.5"></path><path d="M-107.75 490.98L-43.72 666.22" stroke="hsl(118.10000000000002, 100%, 65%)" stroke-width="1.5"></path><path d="M-107.75 490.98L62.49 706.42" stroke="hsl(118.10000000000002, 100%, 65%)" stroke-width="1.5"></path><path d="M-107.75 490.98L192.91 543.22" stroke="hsl(118.10000000000002, 100%, 65%)" stroke-width="1.5"></path><path d="M-43.72 666.22L-43.72 666.22" stroke="hsl(118.10000000000002, 100%, 65%)" stroke-width="1.5"></path><path d="M-43.72 666.22L62.49 706.42" stroke="hsl(118.10000000000002, 100%, 65%)" stroke-width="1.5"></path><path d="M-43.72 666.22L72.51 499.95" stroke="hsl(118.10000000000002, 100%, 65%)" stroke-width="1.5"></path><path d="M-43.72 666.22L193.68 644.26" stroke="hsl(118.10000000000002, 100%, 65%)" stroke-width="1.5"></path><path d="M62.49 706.42L62.49 706.42" stroke="hsl(118.10000000000002, 100%, 65%)" stroke-width="1.5"></path><path d="M62.49 706.42L193.68 644.26" stroke="hsl(118.10000000000002, 100%, 65%)" stroke-width="1.5"></path><path d="M62.49 706.42L72.51 499.95" stroke="hsl(118.10000000000002, 100%, 65%)" stroke-width="1.5"></path><path d="M193.68 644.26L193.68 644.26" stroke="hsl(118.10000000000002, 100%, 65%)" stroke-width="1.5"></path><path d="M193.68 644.26L355.59 648.24" stroke="hsl(118.10000000000002, 100%, 65%)" stroke-width="1.5"></path><path d="M193.68 644.26L373.58 494.1" stroke="hsl(118.10000000000002, 100%, 65%)" stroke-width="1.5"></path><path d="M373.58 494.1L373.58 494.1" stroke="hsl(118.10000000000002, 100%, 65%)" stroke-width="1.5"></path><path d="M373.58 494.1L497.89 512.07" stroke="hsl(118.10000000000002, 100%, 65%)" stroke-width="1.5"></path><path d="M373.58 494.1L355.59 648.24" stroke="hsl(118.10000000000002, 100%, 65%)" stroke-width="1.5"></path><path d="M355.59 648.24L355.59 648.24" stroke="hsl(118.10000000000002, 100%, 65%)" stroke-width="1.5"></path><path d="M355.59 648.24L497.89 512.07" stroke="hsl(118.10000000000002, 100%, 65%)" stroke-width="1.5"></path><path d="M497.89 512.07L497.89 512.07" stroke="hsl(118.10000000000002, 100%, 65%)" stroke-width="1.5"></path><path d="M497.89 512.07L711.31 556.71" stroke="hsl(118.10000000000002, 100%, 65%)" stroke-width="1.5"></path><path d="M497.89 512.07L703.2 382.84" stroke="hsl(118.10000000000002, 100%, 65%)" stroke-width="1.5"></path><path d="M497.89 512.07L798.08 560.47" stroke="hsl(118.10000000000002, 100%, 65%)" stroke-width="1.5"></path><path d="M703.2 382.84L703.2 382.84" stroke="hsl(118.10000000000002, 100%, 65%)" stroke-width="1.5"></path><path d="M703.2 382.84L820.99 339.64" stroke="hsl(118.10000000000002, 100%, 65%)" stroke-width="1.5"></path><path d="M703.2 382.84L711.31 556.71" stroke="hsl(118.10000000000002, 100%, 65%)" stroke-width="1.5"></path><path d="M703.2 382.84L961.14 491.55" stroke="hsl(118.10000000000002, 100%, 65%)" stroke-width="1.5"></path><path d="M711.31 556.71L711.31 556.71" stroke="hsl(118.10000000000002, 100%, 65%)" stroke-width="1.5"></path><path d="M820.99 339.64L820.99 339.64" stroke="hsl(118.10000000000002, 100%, 65%)" stroke-width="1.5"></path><path d="M820.99 339.64L1003.88 393.74" stroke="hsl(118.10000000000002, 100%, 65%)" stroke-width="1.5"></path><path d="M820.99 339.64L961.14 491.55" stroke="hsl(118.10000000000002, 100%, 65%)" stroke-width="1.5"></path><path d="M820.99 339.64L798.08 560.47" stroke="hsl(118.10000000000002, 100%, 65%)" stroke-width="1.5"></path><path d="M844.24 703.8L844.24 703.8" stroke="hsl(118.10000000000002, 100%, 65%)" stroke-width="1.5"></path><path d="M844.24 703.8L963.54 641.14" stroke="hsl(118.10000000000002, 100%, 65%)" stroke-width="1.5"></path><path d="M844.24 703.8L711.31 556.71" stroke="hsl(118.10000000000002, 100%, 65%)" stroke-width="1.5"></path><path d="M1003.88 393.74L1003.88 393.74" stroke="hsl(118.10000000000002, 100%, 65%)" stroke-width="1.5"></path><path d="M1003.88 393.74L961.14 491.55" stroke="hsl(118.10000000000002, 100%, 65%)" stroke-width="1.5"></path><path d="M961.14 491.55L961.14 491.55" stroke="hsl(118.10000000000002, 100%, 65%)" stroke-width="1.5"></path><path d="M961.14 491.55L963.54 641.14" stroke="hsl(118.10000000000002, 100%, 65%)" stroke-width="1.5"></path><path d="M961.14 491.55L1112.58 373.53" stroke="hsl(118.10000000000002, 100%, 65%)" stroke-width="1.5"></path><path d="M961.14 491.55L1153.58 494.79" stroke="hsl(118.10000000000002, 100%, 65%)" stroke-width="1.5"></path><path d="M963.54 641.14L963.54 641.14" stroke="hsl(118.10000000000002, 100%, 65%)" stroke-width="1.5"></path><path d="M963.54 641.14L1142.82 669.91" stroke="hsl(118.10000000000002, 100%, 65%)" stroke-width="1.5"></path><path d="M1143.46 214.92L1143.46 214.92" stroke="hsl(118.10000000000002, 100%, 65%)" stroke-width="1.5"></path><path d="M1143.46 214.92L1259.53 190.12" stroke="hsl(118.10000000000002, 100%, 65%)" stroke-width="1.5"></path><path d="M1143.46 214.92L1112.58 373.53" stroke="hsl(118.10000000000002, 100%, 65%)" stroke-width="1.5"></path><path d="M1112.58 373.53L1112.58 373.53" stroke="hsl(118.10000000000002, 100%, 65%)" stroke-width="1.5"></path><path d="M1112.58 373.53L1003.88 393.74" stroke="hsl(118.10000000000002, 100%, 65%)" stroke-width="1.5"></path><path d="M1112.58 373.53L1255.57 369.93" stroke="hsl(118.10000000000002, 100%, 65%)" stroke-width="1.5"></path><path d="M1142.82 669.91L1142.82 669.91" stroke="hsl(118.10000000000002, 100%, 65%)" stroke-width="1.5"></path><path d="M1142.82 669.91L1242.53 678.67" stroke="hsl(118.10000000000002, 100%, 65%)" stroke-width="1.5"></path><path d="M1142.82 669.91L1153.58 494.79" stroke="hsl(118.10000000000002, 100%, 65%)" stroke-width="1.5"></path><path d="M1142.82 669.91L1288.02 512.38" stroke="hsl(118.10000000000002, 100%, 65%)" stroke-width="1.5"></path><path d="M1237.91 42.65L1237.91 42.65" stroke="hsl(118.10000000000002, 100%, 65%)" stroke-width="1.5"></path><path d="M1237.91 42.65L1259.53 190.12" stroke="hsl(118.10000000000002, 100%, 65%)" stroke-width="1.5"></path><path d="M1259.53 190.12L1259.53 190.12" stroke="hsl(118.10000000000002, 100%, 65%)" stroke-width="1.5"></path><path d="M1259.53 190.12L1160.15 60.45" stroke="hsl(118.10000000000002, 100%, 65%)" stroke-width="1.5"></path><path d="M1255.57 369.93L1255.57 369.93" stroke="hsl(118.10000000000002, 100%, 65%)" stroke-width="1.5"></path><path d="M1255.57 369.93L1288.02 512.38" stroke="hsl(118.10000000000002, 100%, 65%)" stroke-width="1.5"></path><path d="M1255.57 369.93L1153.58 494.79" stroke="hsl(118.10000000000002, 100%, 65%)" stroke-width="1.5"></path><path d="M1255.57 369.93L1420.72 394.31" stroke="hsl(118.10000000000002, 100%, 65%)" stroke-width="1.5"></path><path d="M1255.57 369.93L1259.53 190.12" stroke="hsl(118.10000000000002, 100%, 65%)" stroke-width="1.5"></path><path d="M1288.02 512.38L1288.02 512.38" stroke="hsl(118.10000000000002, 100%, 65%)" stroke-width="1.5"></path><path d="M1288.02 512.38L1417.79 552.44" stroke="hsl(118.10000000000002, 100%, 65%)" stroke-width="1.5"></path><path d="M1288.02 512.38L1242.53 678.67" stroke="hsl(118.10000000000002, 100%, 65%)" stroke-width="1.5"></path><path d="M1288.02 512.38L1420.72 394.31" stroke="hsl(118.10000000000002, 100%, 65%)" stroke-width="1.5"></path><path d="M1242.53 678.67L1242.53 678.67" stroke="hsl(118.10000000000002, 100%, 65%)" stroke-width="1.5"></path><path d="M1242.53 678.67L1153.58 494.79" stroke="hsl(118.10000000000002, 100%, 65%)" stroke-width="1.5"></path><path d="M1242.53 678.67L1417.79 552.44" stroke="hsl(118.10000000000002, 100%, 65%)" stroke-width="1.5"></path><path d="M1242.53 678.67L963.54 641.14" stroke="hsl(118.10000000000002, 100%, 65%)" stroke-width="1.5"></path><path d="M1242.53 678.67L1255.57 369.93" stroke="hsl(118.10000000000002, 100%, 65%)" stroke-width="1.5"></path><path d="M1424.48 -71.3L1424.48 -71.3" stroke="hsl(118.10000000000002, 100%, 65%)" stroke-width="1.5"></path><path d="M1424.48 -71.3L1441.3 107.64" stroke="hsl(118.10000000000002, 100%, 65%)" stroke-width="1.5"></path><path d="M1441.3 107.64L1441.3 107.64" stroke="hsl(118.10000000000002, 100%, 65%)" stroke-width="1.5"></path><path d="M1441.3 107.64L1609.33 107.54" stroke="hsl(118.10000000000002, 100%, 65%)" stroke-width="1.5"></path><path d="M1441.3 107.64L1259.53 190.12" stroke="hsl(118.10000000000002, 100%, 65%)" stroke-width="1.5"></path><path d="M1420.72 394.31L1420.72 394.31" stroke="hsl(118.10000000000002, 100%, 65%)" stroke-width="1.5"></path><path d="M1420.72 394.31L1557.23 399.7" stroke="hsl(118.10000000000002, 100%, 65%)" stroke-width="1.5"></path><path d="M1417.79 552.44L1417.79 552.44" stroke="hsl(118.10000000000002, 100%, 65%)" stroke-width="1.5"></path><path d="M1417.79 552.44L1420.72 394.31" stroke="hsl(118.10000000000002, 100%, 65%)" stroke-width="1.5"></path><path d="M1417.79 552.44L1590.1 495.2" stroke="hsl(118.10000000000002, 100%, 65%)" stroke-width="1.5"></path><path d="M1609.33 107.54L1609.33 107.54" stroke="hsl(118.10000000000002, 100%, 65%)" stroke-width="1.5"></path><path d="M1557.23 399.7L1557.23 399.7" stroke="hsl(118.10000000000002, 100%, 65%)" stroke-width="1.5"></path><path d="M1557.23 399.7L1590.1 495.2" stroke="hsl(118.10000000000002, 100%, 65%)" stroke-width="1.5"></path><path d="M1557.23 399.7L1432.63 243.2" stroke="hsl(118.10000000000002, 100%, 65%)" stroke-width="1.5"></path><path d="M1590.1 495.2L1590.1 495.2" stroke="hsl(118.10000000000002, 100%, 65%)" stroke-width="1.5"></path><path d="M1590.1 495.2L1420.72 394.31" stroke="hsl(118.10000000000002, 100%, 65%)" stroke-width="1.5"></path><path d="M1590.1 495.2L1432.63 243.2" stroke="hsl(118.10000000000002, 100%, 65%)" stroke-width="1.5"></path><path d="M1590.1 495.2L1601.93 197.43" stroke="hsl(118.10000000000002, 100%, 65%)" stroke-width="1.5"></path><circle r="25" cx="72.51" cy="499.95" fill="url(#SvgjsRadialGradient1007)"></circle><circle r="25" cx="192.91" cy="543.22" fill="url(#SvgjsRadialGradient1007)"></circle><circle r="25" cx="659.78" cy="659.79" fill="url(#SvgjsRadialGradient1007)"></circle><circle r="25" cx="798.08" cy="560.47" fill="url(#SvgjsRadialGradient1007)"></circle><circle r="25" cx="1160.15" cy="60.45" fill="url(#SvgjsRadialGradient1007)"></circle><circle r="25" cx="1153.58" cy="494.79" fill="url(#SvgjsRadialGradient1007)"></circle><circle r="25" cx="1432.63" cy="243.2" fill="url(#SvgjsRadialGradient1007)"></circle><circle r="25" cx="1580.37" cy="-44.84" fill="url(#SvgjsRadialGradient1007)"></circle><circle r="25" cx="1601.93" cy="197.43" fill="url(#SvgjsRadialGradient1007)"></circle><circle r="5" cx="-107.75" cy="490.98" fill="#84ff80"></circle><circle r="5" cx="-43.72" cy="666.22" fill="#84ff80"></circle><circle r="5" cx="62.49" cy="706.42" fill="#84ff80"></circle><circle r="5" cx="193.68" cy="644.26" fill="#84ff80"></circle><circle r="5" cx="373.58" cy="494.1" fill="#84ff80"></circle><circle r="5" cx="355.59" cy="648.24" fill="#84ff80"></circle><circle r="5" cx="497.89" cy="512.07" fill="#84ff80"></circle><circle r="5" cx="703.2" cy="382.84" fill="#84ff80"></circle><circle r="5" cx="711.31" cy="556.71" fill="#84ff80"></circle><circle r="5" cx="820.99" cy="339.64" fill="#84ff80"></circle><circle r="5" cx="844.24" cy="703.8" fill="#84ff80"></circle><circle r="5" cx="1003.88" cy="393.74" fill="#84ff80"></circle><circle r="5" cx="961.14" cy="491.55" fill="#84ff80"></circle><circle r="5" cx="963.54" cy="641.14" fill="#84ff80"></circle><circle r="5" cx="1143.46" cy="214.92" fill="#84ff80"></circle><circle r="5" cx="1112.58" cy="373.53" fill="#84ff80"></circle><circle r="5" cx="1142.82" cy="669.91" fill="#84ff80"></circle><circle r="5" cx="1237.91" cy="42.65" fill="#84ff80"></circle><circle r="5" cx="1259.53" cy="190.12" fill="#84ff80"></circle><circle r="5" cx="1255.57" cy="369.93" fill="#84ff80"></circle><circle r="5" cx="1288.02" cy="512.38" fill="#84ff80"></circle><circle r="5" cx="1242.53" cy="678.67" fill="#84ff80"></circle><circle r="5" cx="1424.48" cy="-71.3" fill="#84ff80"></circle><circle r="5" cx="1441.3" cy="107.64" fill="#84ff80"></circle><circle r="5" cx="1420.72" cy="394.31" fill="#84ff80"></circle><circle r="5" cx="1417.79" cy="552.44" fill="#84ff80"></circle><circle r="5" cx="1609.33" cy="107.54" fill="#84ff80"></circle><circle r="5" cx="1557.23" cy="399.7" fill="#84ff80"></circle><circle r="5" cx="1590.1" cy="495.2" fill="#84ff80"></circle></g><defs><mask id="SvgjsMask1006"><rect width="1440" height="560" fill="#ffffff"></rect></mask><radialGradient id="SvgjsRadialGradient1007"><stop stop-color="#ffffff" offset="0.1"></stop><stop stop-color="rgba(8, 255, 0, 1)" offset="0.2"></stop><stop stop-color="rgba(8, 255, 0, 0)" offset="1"></stop></radialGradient></defs></svg>